<svg id="visual" viewBox="0 0 900 600" width="900" height="600" xmlns="http://www.w3.org/2000/svg" xmlns:xlink="http://www.w3.org/1999/xlink" version="1.1"><rect width="900" height="600" fill="#FFFFFF"></rect><g><g transform="translate(254 233)"><path d="M0 -57.1L24.8 -51.4L44.6 -35.6L55.7 -12.7L55.7 12.7L44.6 35.6L24.8 51.4L0 57.1L-24.8 51.4L-44.6 35.6L-55.7 12.7L-55.7 -12.7L-44.6 -35.6L-24.8 -51.4Z" fill="none" stroke="#0f288a" stroke-width="2"></path></g><g transform="translate(335 361)"><path d="M0 -25L10.8 -22.5L19.5 -15.6L24.4 -5.6L24.4 5.6L19.5 15.6L10.8 22.5L0 25L-10.8 22.5L-19.5 15.6L-24.4 5.6L-24.4 -5.6L-19.5 -15.6L-10.8 -22.5Z" fill="none" stroke="#0f288a" stroke-width="2"></path></g><g transform="translate(500 435)"><path d="M0 -40L17.4 -36L31.3 -24.9L39 -8.9L39 8.9L31.3 24.9L17.4 36L0 40L-17.4 36L-31.3 24.9L-39 8.9L-39 -8.9L-31.3 -24.9L-17.4 -36Z" fill="none" stroke="#0f288a" stroke-width="2"></path></g><g transform="translate(104 259)"><path d="M0 -40L17.4 -36L31.3 -24.9L39 -8.9L39 8.9L31.3 24.9L17.4 36L0 40L-17.4 36L-31.3 24.9L-39 8.9L-39 -8.9L-31.3 -24.9L-17.4 -36Z" fill="none" stroke="#0f288a" stroke-width="2"></path></g><g transform="translate(60 93)"><path d="M0 -54L23.4 -48.7L42.2 -33.7L52.6 -12L52.6 12L42.2 33.7L23.4 48.7L0 54L-23.4 48.7L-42.2 33.7L-52.6 12L-52.6 -12L-42.2 -33.7L-23.4 -48.7Z" fill="none" stroke="#0f288a" stroke-width="2"></path></g><g transform="translate(181 465)"><path d="M0 -36L15.6 -32.4L28.1 -22.4L35.1 -8L35.1 8L28.1 22.4L15.6 32.4L0 36L-15.6 32.4L-28.1 22.4L-35.1 8L-35.1 -8L-28.1 -22.4L-15.6 -32.4Z" fill="none" stroke="#0f288a" stroke-width="2"></path></g><g transform="translate(836 108)"><path d="M0 -46L20 -41.4L36 -28.7L44.8 -10.2L44.8 10.2L36 28.7L20 41.4L0 46L-20 41.4L-36 28.7L-44.8 10.2L-44.8 -10.2L-36 -28.7L-20 -41.4Z" fill="none" stroke="#0f288a" stroke-width="2"></path></g><g transform="translate(649 99)"><path d="M0 -48L20.8 -43.2L37.5 -29.9L46.8 -10.7L46.8 10.7L37.5 29.9L20.8 43.2L0 48L-20.8 43.2L-37.5 29.9L-46.8 10.7L-46.8 -10.7L-37.5 -29.9L-20.8 -43.2Z" fill="none" stroke="#0f288a" stroke-width="2"></path></g><g transform="translate(547 212)"><path d="M0 -23L10 -20.7L18 -14.3L22.4 -5.1L22.4 5.1L18 14.3L10 20.7L0 23L-10 20.7L-18 14.3L-22.4 5.1L-22.4 -5.1L-18 -14.3L-10 -20.7Z" fill="none" stroke="#0f288a" stroke-width="2"></path></g><g transform="translate(649 463)"><path d="M0 -20L8.7 -18L15.6 -12.5L19.5 -4.5L19.5 4.5L15.6 12.5L8.7 18L0 20L-8.7 18L-15.6 12.5L-19.5 4.5L-19.5 -4.5L-15.6 -12.5L-8.7 -18Z" fill="none" stroke="#0f288a" stroke-width="2"></path></g></g></svg>