<svg id="visual" viewBox="0 0 900 600" width="900" height="600" xmlns="http://www.w3.org/2000/svg" xmlns:xlink="http://www.w3.org/1999/xlink" version="1.1"><rect width="900" height="600" fill="#FFFFFF"></rect><g><g transform="translate(873 496)"><path d="M0 -21.7L9.4 -19.6L17 -13.5L21.2 -4.8L21.2 4.8L17 13.5L9.4 19.6L0 21.7L-9.4 19.6L-17 13.5L-21.2 4.8L-21.2 -4.8L-17 -13.5L-9.4 -19.6Z" fill="#0f288a"></path></g><g transform="translate(418 37)"><path d="M0 -20L8.7 -18L15.6 -12.5L19.5 -4.5L19.5 4.5L15.6 12.5L8.7 18L0 20L-8.7 18L-15.6 12.5L-19.5 4.5L-19.5 -4.5L-15.6 -12.5L-8.7 -18Z" fill="#0f288a"></path></g></g></svg>