<svg id="visual" viewBox="0 0 900 600" width="900" height="600" xmlns="http://www.w3.org/2000/svg" xmlns:xlink="http://www.w3.org/1999/xlink" version="1.1"><rect width="900" height="600" fill="#FFFFFF"></rect><g><g transform="translate(170 306)"><path d="M0 -21.7L9.4 -19.6L17 -13.5L21.2 -4.8L21.2 4.8L17 13.5L9.4 19.6L0 21.7L-9.4 19.6L-17 13.5L-21.2 4.8L-21.2 -4.8L-17 -13.5L-9.4 -19.6Z" fill="#0f288a"></path></g><g transform="translate(728 335)"><path d="M0 -16L6.9 -14.4L12.5 -10L15.6 -3.6L15.6 3.6L12.5 10L6.9 14.4L0 16L-6.9 14.4L-12.5 10L-15.6 3.6L-15.6 -3.6L-12.5 -10L-6.9 -14.4Z" fill="#0f288a"></path></g></g></svg>